<?xml version="1.0" encoding="UTF-8" standalone="no"?>
<svg
   xmlns:dc="http://purl.org/dc/elements/1.1/"
   xmlns:cc="http://creativecommons.org/ns#"
   xmlns:rdf="http://www.w3.org/1999/02/22-rdf-syntax-ns#"
   xmlns:svg="http://www.w3.org/2000/svg"
   xmlns="http://www.w3.org/2000/svg"
   xmlns:sodipodi="http://sodipodi.sourceforge.net/DTD/sodipodi-0.dtd"
   xmlns:inkscape="http://www.inkscape.org/namespaces/inkscape"
   version="1.1"
   id="svg2"
   width="512"
   height="512"
   viewBox="0 0 512 512"
   sodipodi:docname="best-product.svg"
   inkscape:version="1.0.1 (3bc2e813f5, 2020-09-07)">
  <metadata
     id="metadata8">
    <rdf:RDF>
      <cc:Work
         rdf:about="">
        <dc:format>image/svg+xml</dc:format>
        <dc:type
           rdf:resource="http://purl.org/dc/dcmitype/StillImage" />
        <dc:title></dc:title>
      </cc:Work>
    </rdf:RDF>
  </metadata>
  <defs
     id="defs6" />
  <sodipodi:namedview
     pagecolor="#ffffff"
     bordercolor="#666666"
     borderopacity="1"
     objecttolerance="10"
     gridtolerance="10"
     guidetolerance="10"
     inkscape:pageopacity="0"
     inkscape:pageshadow="2"
     inkscape:window-width="1920"
     inkscape:window-height="1009"
     id="namedview4"
     showgrid="false"
     inkscape:zoom="1.4355469"
     inkscape:cx="354.91701"
     inkscape:cy="256"
     inkscape:window-x="-8"
     inkscape:window-y="-8"
     inkscape:window-maximized="1"
     inkscape:current-layer="g10" />
  <g
     inkscape:groupmode="layer"
     inkscape:label="Image"
     id="g10">
    <path
       style="fill:#000000"
       d="M 167.41863,447.19965 C 123.92387,429.21484 87.203635,413.7462 85.818104,412.82489 79.93481,408.91278 80,409.66722 80,345.49188 c 0,-46.56149 0.258585,-58.60366 1.25,-58.21184 0.6875,0.2717 27.29613,10.91761 59.13028,23.65758 31.83416,12.73996 60.07166,23.57915 62.75,24.08709 8.2739,1.56911 19.42508,-1.62236 25.74185,-7.36731 1.30467,-1.18657 5.75896,-6.6574 9.89842,-12.1574 4.13947,-5.5 7.90951,-10.4275 8.37788,-10.95 0.4695,-0.52377 0.85157,38.62178 0.85157,87.25 0,48.51 -0.3375,88.17734 -0.75,88.14965 -0.4125,-0.0277 -36.33662,-14.76519 -79.83137,-32.75 z M 264,391.8 c 0,-48.62822 0.38207,-87.77377 0.85157,-87.25 0.46837,0.5225 4.23841,5.45 8.37788,10.95 4.13946,5.5 8.59375,10.97083 9.89842,12.1574 6.31677,5.74495 17.46795,8.93642 25.74185,7.36731 2.67834,-0.50794 30.91584,-11.34713 62.75,-24.08709 31.83415,-12.73997 58.44278,-23.38588 59.13028,-23.65758 0.99141,-0.39182 1.25,11.65035 1.25,58.21184 0,64.25097 0.09,63.21856 -5.87329,67.38098 C 423.88946,414.43448 266.05977,480 264.53787,480 264.24204,480 264,440.31 264,391.8 Z M 121.92968,287.2032 c -44.863673,-17.98676 -82.708907,-33.457 -84.100519,-34.37831 -5.331503,-3.5297 -7.472569,-13.55941 -4.315015,-20.21346 0.832781,-1.75495 13.095281,-14.70229 27.25,-28.77186 C 81.576974,183.15194 87.360807,177.94557 91,176.62244 104.27807,171.79486 252.89569,128 256,128 c 3.10431,0 151.72193,43.79486 165,48.62244 3.63919,1.32313 9.42303,6.5295 30.23585,27.21713 14.15472,14.06957 26.41722,27.01691 27.25,28.77186 3.17478,6.69035 1.06478,16.49077 -4.35914,20.24707 -1.44469,1.00052 -39.41446,16.51666 -84.37727,34.48031 C 329.00094,311.6092 306.94601,320 303.90057,320 c -7.94431,0 -9.61923,-1.58862 -29.09308,-27.59414 C 264.75571,278.98264 256.29234,268 256,268 c -0.29234,0 -8.75571,10.98264 -18.80749,24.40586 -19.59913,26.17282 -21.15712,27.63544 -29.34364,27.54734 -3.31266,-0.0356 -23.78475,-7.83904 -85.91919,-32.75 z M 307.25,207.48305 c 27.3625,-8.17828 49.75,-15.14591 49.75,-15.48362 0,-0.33772 -22.725,-7.42668 -50.5,-15.75326 -50.5,-15.13923 -50.5,-15.13923 -101,0 -27.775,8.32658 -50.5,15.41617 -50.5,15.75465 0,0.77088 100.13315,30.97281 101.5,30.6142 0.55,-0.1443 23.3875,-6.95369 50.75,-15.13197 z M 88.218183,158.39313 C 83.82385,156.15198 81.979744,153.35484 74.452055,137.51268 68.049356,124.03808 68.049356,124.03808 53.774678,116.91561 34.670761,107.38356 31.996395,104.72824 32.003738,95.29966 32.010805,86.226318 34.794953,83.629766 55.815143,73.092666 67.941895,67.013711 67.941895,67.013711 75.720948,51.756855 84.828391,33.89466 86.77313,32 96,32 c 9.22694,0 11.17158,1.894593 20.27942,19.757588 7.77942,15.257588 7.77942,15.257588 21,21.85574 C 157.08214,83.49651 160,86.307273 160,95.5 c 0,9.19529 -2.77779,11.93707 -21.6167,21.33647 -14.11669,7.04333 -14.11669,7.04333 -21.6878,22.49104 -8.74731,17.8476 -10.69213,19.86923 -19.630103,20.40548 -3.790046,0.22739 -6.612291,-0.20003 -8.847214,-1.33986 z m 319.999997,0 c -4.39433,-2.24115 -6.23844,-5.03829 -13.76612,-20.88045 -6.4027,-13.4746 -6.4027,-13.4746 -20.67738,-20.59707 -19.10392,-9.53205 -21.77829,-12.18737 -21.77094,-21.61595 0.007,-9.073342 2.79121,-11.669894 23.8114,-22.206994 C 387.9419,67.013711 387.9419,67.013711 395.72095,51.756855 404.82839,33.89466 406.77313,32 416,32 c 9.22694,0 11.17158,1.894593 20.27942,19.757588 7.77942,15.257588 7.77942,15.257588 21,21.85574 C 477.08214,83.49651 480,86.307273 480,95.5 c 0,9.19529 -2.77779,11.93707 -21.6167,21.33647 -14.11669,7.04333 -14.11669,7.04333 -21.6878,22.49104 -8.74731,17.8476 -10.69213,19.86923 -19.6301,20.40548 -3.79005,0.22739 -6.61229,-0.20003 -8.84722,-1.33986 z"
       id="path837" />
  </g>
</svg>
