<?xml version="1.0" encoding="UTF-8" standalone="no"?>
<svg
   xmlns:dc="http://purl.org/dc/elements/1.1/"
   xmlns:cc="http://creativecommons.org/ns#"
   xmlns:rdf="http://www.w3.org/1999/02/22-rdf-syntax-ns#"
   xmlns:svg="http://www.w3.org/2000/svg"
   xmlns="http://www.w3.org/2000/svg"
   xmlns:sodipodi="http://sodipodi.sourceforge.net/DTD/sodipodi-0.dtd"
   xmlns:inkscape="http://www.inkscape.org/namespaces/inkscape"
   version="1.1"
   id="svg2"
   width="512"
   height="512"
   viewBox="0 0 512 512"
   sodipodi:docname="price-tag.svg"
   inkscape:version="1.0.1 (3bc2e813f5, 2020-09-07)">
  <metadata
     id="metadata8">
    <rdf:RDF>
      <cc:Work
         rdf:about="">
        <dc:format>image/svg+xml</dc:format>
        <dc:type
           rdf:resource="http://purl.org/dc/dcmitype/StillImage" />
        <dc:title></dc:title>
      </cc:Work>
    </rdf:RDF>
  </metadata>
  <defs
     id="defs6" />
  <sodipodi:namedview
     pagecolor="#ffffff"
     bordercolor="#666666"
     borderopacity="1"
     objecttolerance="10"
     gridtolerance="10"
     guidetolerance="10"
     inkscape:pageopacity="0"
     inkscape:pageshadow="2"
     inkscape:window-width="1920"
     inkscape:window-height="1009"
     id="namedview4"
     showgrid="false"
     inkscape:zoom="1.4355469"
     inkscape:cx="256"
     inkscape:cy="256"
     inkscape:window-x="-8"
     inkscape:window-y="-8"
     inkscape:window-maximized="1"
     inkscape:current-layer="g10" />
  <g
     inkscape:groupmode="layer"
     inkscape:label="Image"
     id="g10">
    <path
       style="fill:#000000"
       d="m 178.6068,508.18534 c -4.79361,-0.80244 -12.53207,-3.55254 -17,-6.04148 -5.49587,-3.06158 -142.676,-139.60338 -147.03257,-146.3484 -9.5073302,-14.71961 -10.1946402,-35.02915 -1.69819,-50.1806 2.51658,-4.48774 22.79438,-25.33968 91.73076,-94.32798 48.675,-48.71166 90.525,-90.26986 93,-92.35155 31.63155,-26.60487 76.49273,-38.085135 117.80808,-30.147841 9.02327,1.733505 9.02327,1.733505 11.27041,-2.338897 9.86577,-17.879295 31.24971,-41.393843 48.92151,-53.795854 16.91744,-11.872602 36.24303,-20.239222 53.83592,-23.3071652 37.45243,-6.531158 66.96848,10.0366362 75.76966,42.5306182 2.731,10.08286 2.32213,28.776418 -0.89863,41.085093 -9.65509,36.898616 -35.50913,70.923666 -70.19746,92.382926 -9.27429,5.73736 -9.27429,5.73736 -7.92251,10.86171 4.09346,15.51758 4.28013,41.01741 0.43681,59.66999 -2.49145,12.09162 -8.32314,28.24855 -13.76121,38.12595 -9.73512,17.68234 -13.0003,21.1916 -107.47545,115.50979 -84.94492,84.8038 -91.73872,91.34455 -97.78713,94.14492 -9.83847,4.55514 -19.6703,6.09052 -29,4.52877 z M 137.86261,397.04078 c 0.96569,-0.38216 5.61589,-4.46711 10.33378,-9.07768 8.57797,-8.38284 8.57797,-8.38284 16.28392,-4.27693 17.11044,9.11682 31.63068,9.39076 48.99366,0.92429 9.56211,-4.66263 20.76195,-16.02391 25.42856,-25.79509 8.58542,-17.97661 7.64394,-30.57374 -4.69085,-62.76421 -7.56819,-19.75092 -8.59243,-23.22652 -8.59775,-29.17497 -0.0108,-12.02039 10.18896,-18.87015 21.60612,-14.5099 9.35232,3.57168 14.80411,10.65805 18.44842,23.97968 2.5645,9.37445 4.13802,12.06269 8.33683,14.24284 4.62305,2.40042 13.51717,2.12065 17.85733,-0.56172 3.90304,-2.4122 6.74417,-7.40089 6.74417,-11.84193 0,-4.69983 -2.82126,-14.296 -6.49019,-22.07557 -3.427,-7.26661 -3.427,-7.26661 -0.96841,-10.88955 2.98403,-4.39721 3.10427,-7.77257 0.43297,-12.15403 -2.71851,-4.45888 -8.01627,-6.66113 -12.48013,-5.18792 -1.83384,0.60522 -3.86793,1.74344 -4.5202,2.52938 -1.00177,1.20706 -1.82951,0.90725 -5.32999,-1.93057 -15.20857,-12.32948 -37.84266,-14.10695 -53.47276,-4.19925 -14.53377,9.21276 -22.99367,28.83133 -20.20196,46.84854 1.47596,9.52562 2.95711,14.72815 10.32034,36.25 5.52216,16.14064 6.16098,18.83401 6.18431,26.07391 0.0234,7.2647 -0.2773,8.56497 -3.00042,12.97356 -8.70653,14.09547 -28.82865,15.46993 -40.53609,2.76887 -5.70704,-6.19141 -9.75517,-15.42962 -11.83612,-27.01116 -2.05311,-11.42659 -3.0926,-13.71929 -7.41517,-16.35495 -4.07017,-2.48176 -14.63767,-2.69037 -18.53189,-0.36583 -5.26332,3.14179 -6.66435,6.22778 -6.54463,14.4156 0.19501,13.33709 5.12602,28.18023 13.06763,39.33573 3.44256,4.83573 3.44256,4.83573 -5.11736,13.71529 -8.10413,8.40675 -8.55993,9.11385 -8.55993,13.27942 0,8.15174 7.20241,13.62544 14.25581,10.83415 z M 343.42821,201.7886 c 3.11986,-1.08759 3.11986,-1.08759 -3.09877,-4.25 -3.62136,-1.8416 -8.93425,-5.87803 -12.72063,-9.66442 -3.78639,-3.78638 -7.82282,-9.09927 -9.66442,-12.72063 -3.16241,-6.21863 -3.16241,-6.21863 -4.25,-3.09877 -5.13223,14.72233 6.05102,30.73287 21.51319,30.79945 2.80542,0.0121 6.50471,-0.46745 8.22063,-1.06563 z m 13.75914,-13.06817 c 0.91991,-1.77892 1.65532,-5.64186 1.68558,-8.85396 0.10151,-10.77677 -6.48483,-19.51326 -17.0397,-22.60244 -6.46396,-1.89186 -13.19742,-0.75895 -19.23455,3.23623 -4.16626,2.7571 -5.39546,4.19747 -2.05762,2.41111 2.85018,-1.52537 2.96041,-1.44671 5.15819,3.68049 4.30123,10.03438 13.92075,19.52946 23.62904,23.32338 6.21338,2.42814 5.96612,2.46573 7.85906,-1.19481 z m 75.32436,-15.28702 C 472.504,146.57994 498.61423,102.68058 496.33944,66.11929 495.28809,49.221482 488.49998,35.895558 476.78056,27.722703 462.36224,17.667704 439.17793,16.081822 416.65932,23.610216 c -22.86911,7.645571 -47.13111,24.565448 -63.9412,44.591426 -7.63664,9.097577 -17.34007,23.488297 -16.84309,24.979224 0.17706,0.531188 4.30078,2.680439 9.16382,4.776115 24.41501,10.521389 46.00924,28.676519 61.43206,51.648389 4.1477,6.1779 11.89154,21.26253 13.95709,27.18775 0.59112,1.69569 1.39288,3.08307 1.7817,3.08307 0.38881,0 5.02472,-2.89925 10.30201,-6.44278 z"
       id="path837" />
  </g>
</svg>
