<?xml version="1.0" encoding="UTF-8" standalone="no"?>
<svg
   xmlns:dc="http://purl.org/dc/elements/1.1/"
   xmlns:cc="http://creativecommons.org/ns#"
   xmlns:rdf="http://www.w3.org/1999/02/22-rdf-syntax-ns#"
   xmlns:svg="http://www.w3.org/2000/svg"
   xmlns="http://www.w3.org/2000/svg"
   xmlns:sodipodi="http://sodipodi.sourceforge.net/DTD/sodipodi-0.dtd"
   xmlns:inkscape="http://www.inkscape.org/namespaces/inkscape"
   version="1.1"
   id="svg2"
   width="512"
   height="512"
   viewBox="0 0 512 512"
   sodipodi:docname="reloading.svg"
   inkscape:version="1.0.1 (3bc2e813f5, 2020-09-07)">
  <metadata
     id="metadata8">
    <rdf:RDF>
      <cc:Work
         rdf:about="">
        <dc:format>image/svg+xml</dc:format>
        <dc:type
           rdf:resource="http://purl.org/dc/dcmitype/StillImage" />
        <dc:title></dc:title>
      </cc:Work>
    </rdf:RDF>
  </metadata>
  <defs
     id="defs6" />
  <sodipodi:namedview
     pagecolor="#ffffff"
     bordercolor="#666666"
     borderopacity="1"
     objecttolerance="10"
     gridtolerance="10"
     guidetolerance="10"
     inkscape:pageopacity="0"
     inkscape:pageshadow="2"
     inkscape:window-width="1920"
     inkscape:window-height="1009"
     id="namedview4"
     showgrid="false"
     inkscape:zoom="1.1720155"
     inkscape:cx="243.55503"
     inkscape:cy="200.38585"
     inkscape:window-x="-8"
     inkscape:window-y="-8"
     inkscape:window-maximized="1"
     inkscape:current-layer="g10" />
  <g
     inkscape:groupmode="layer"
     inkscape:label="Image"
     id="g10">
    <path
       style="fill:#000000"
       d="M 229.5,478.92421 C 162.71686,469.99898 105.31452,434.55747 69.041162,379.85327 51.884949,353.97983 40.390238,324.75183 34.490449,292 31.851462,277.35004 31.331033,244.74983 33.467807,227.94076 43.004819,152.91725 89.886129,87.364893 157.45507,54.574065 c 21.95038,-10.652394 46.28491,-18.012232 69.38667,-20.985594 15.93879,-2.051437 42.40824,-2.049037 58.31652,0.0053 78.89618,10.188297 147.59132,62.819221 177.92683,136.319019 5.99484,14.52488 11.19241,32.29708 13.99944,47.8687 3.05026,16.92089 3.75339,48.14775 1.48535,65.96569 -11.35011,89.16732 -74.38697,162.95169 -160.35136,187.69055 -21.63024,6.22475 -32.87073,7.77902 -58.71852,8.11926 -12.65,0.16651 -26.15,-0.11824 -30,-0.63277 z m 52.07821,-101.86547 c 48.63405,-10.11496 87.07269,-50.06466 96.12823,-99.9071 0.92488,-5.09062 1.5568,-14.00245 1.53527,-21.65164 -0.13401,-47.60869 -27.2785,-90.47819 -70.20671,-110.87799 -8.68033,-4.12497 -8.68033,-4.12497 -7.27771,-7.5624 2.4187,-5.92758 1.77062,-14.46003 -1.54863,-20.3888 C 295.96459,109.09015 288.88426,105 280.00568,105 c -4.37326,0 -7.74464,0.60142 -10.04424,1.79179 -4.36486,2.25944 -47.0279,35.05243 -52.65333,40.47205 -11.56377,11.14067 -11.56377,30.33165 0,41.47232 5.62543,5.41962 48.28847,38.21261 52.65333,40.47205 2.2996,1.19037 5.67098,1.79179 10.04424,1.79179 5.64985,0 7.34985,-0.4606 11.99512,-3.25 10.02494,-6.01979 14.11745,-19.71739 8.92944,-29.88674 -1.13837,-2.23139 -1.89325,-4.23358 -1.67752,-4.44931 0.65947,-0.65947 10.5678,8.21156 15.03488,13.46089 6.16474,7.24427 10.53538,14.96369 14.07766,24.86395 3.00133,8.38835 3.13474,9.42086 3.13474,24.26121 0,14.84035 -0.13341,15.87286 -3.13474,24.26121 -8.36101,23.36804 -24.73601,39.74304 -48.10405,48.10405 -8.34068,2.98428 -9.48119,3.13474 -23.76121,3.13474 -13.82476,0 -15.68794,-0.22549 -23.7804,-2.87799 -23.30504,-7.63879 -41.46004,-25.64942 -49.17962,-48.78854 -2.17539,-6.52065 -2.93882,-11.16143 -3.50944,-21.33347 -0.44188,-7.87729 -1.32744,-14.37919 -2.2473,-16.5 -6.0482,-13.94463 -26.87325,-17.87584 -38.12482,-7.19695 -5.88034,5.58104 -7.08467,9.48517 -7.00144,22.69695 0.23833,37.83314 16.35014,70.88846 46.13076,94.64283 18.03891,14.38866 41.76774,24.2033 64.85481,26.82506 10.51578,1.19417 27.00427,0.36437 37.93566,-1.90915 z"
       id="path837" />
  </g>
</svg>
