<?xml version="1.0" encoding="UTF-8" standalone="no"?>
<svg
   xmlns:dc="http://purl.org/dc/elements/1.1/"
   xmlns:cc="http://creativecommons.org/ns#"
   xmlns:rdf="http://www.w3.org/1999/02/22-rdf-syntax-ns#"
   xmlns:svg="http://www.w3.org/2000/svg"
   xmlns="http://www.w3.org/2000/svg"
   xmlns:sodipodi="http://sodipodi.sourceforge.net/DTD/sodipodi-0.dtd"
   xmlns:inkscape="http://www.inkscape.org/namespaces/inkscape"
   version="1.1"
   id="svg2"
   width="512"
   height="512"
   viewBox="0 0 512 512"
   sodipodi:docname="shopping.svg"
   inkscape:version="1.0.1 (3bc2e813f5, 2020-09-07)">
  <metadata
     id="metadata8">
    <rdf:RDF>
      <cc:Work
         rdf:about="">
        <dc:format>image/svg+xml</dc:format>
        <dc:type
           rdf:resource="http://purl.org/dc/dcmitype/StillImage" />
        <dc:title></dc:title>
      </cc:Work>
    </rdf:RDF>
  </metadata>
  <defs
     id="defs6" />
  <sodipodi:namedview
     pagecolor="#ffffff"
     bordercolor="#666666"
     borderopacity="1"
     objecttolerance="10"
     gridtolerance="10"
     guidetolerance="10"
     inkscape:pageopacity="0"
     inkscape:pageshadow="2"
     inkscape:window-width="1920"
     inkscape:window-height="1009"
     id="namedview4"
     showgrid="false"
     inkscape:zoom="1.4355469"
     inkscape:cx="154.41922"
     inkscape:cy="262.61769"
     inkscape:window-x="-8"
     inkscape:window-y="-8"
     inkscape:window-maximized="1"
     inkscape:current-layer="g10" />
  <g
     inkscape:groupmode="layer"
     inkscape:label="Image"
     id="g10">
    <path
       style="fill:#000000"
       d="M 147.95518,476.90054 C 109.60861,471.94107 75.548804,444.28722 61.973635,407.09037 56.597894,392.36049 56,385.82858 56,341.82917 c 0,-37.94111 0.09865,-40.10222 2.000858,-43.83085 5.520442,-10.82096 16.081156,-14.34622 30.143807,-10.06228 10.808134,3.29252 18.851215,4.38173 32.355335,4.38163 22.94821,-1.6e-4 44.54878,-7.11276 62.40333,-20.54806 3.63095,-2.73224 5.80956,-3.77132 6.64175,-3.16777 16.33226,11.84509 26.88687,17.10091 42.08261,20.95562 29.32441,7.43875 61.83885,1.0047 85.72447,-16.96341 5.85215,-4.40232 5.85215,-4.40232 13.80431,1.0125 9.54883,6.50202 14.90242,9.26906 24.82796,12.83253 21.12555,7.58448 43.81846,8.26701 65.53529,1.97108 4.79311,-1.38957 10.94567,-2.54378 13.67235,-2.5649 6.62791,-0.0513 13.3896,3.48383 17.29878,9.04421 3.00915,4.28019 3.00915,4.28019 3.29135,45.84648 0.31108,45.82057 -0.13811,50.96148 -5.81083,66.5051 -14.25592,39.06215 -48.79826,65.76235 -90.56525,70.00422 -8.97972,0.91199 -11.71011,0.87145 -14.32747,-0.21269 -6.53877,-2.70845 -6.51854,-2.58679 -7.14906,-42.98536 -0.51949,-33.28489 -0.76373,-37.26133 -2.73623,-44.54722 -7.98988,-29.51242 -29.38329,-48.68933 -60.35456,-54.10142 -11.25591,-1.96692 -34.65454,-1.39557 -44.8388,1.09488 -25.96522,6.34949 -47.66981,28.31642 -53.978,54.63041 -1.80784,7.54123 -2.00869,11.79325 -2.01499,42.65825 -0.008,37.75477 -0.28387,39.75833 -5.87857,42.65146 -3.27635,1.69427 -9.55927,1.8397 -20.17326,0.46696 z m 52.54482,0.1541 c -1.1,-0.45022 -2.9,-1.81832 -4,-3.04023 -1.90164,-2.1124 -2.01445,-3.85171 -2.2939,-35.36803 -0.19253,-21.71441 0.10298,-35.50808 0.85682,-39.994 3.29734,-19.62166 19.78395,-37.39557 39.19233,-42.25251 9.80066,-2.45262 32.35941,-2.48837 42.1443,-0.0668 20.95309,5.18549 33.83848,17.92532 39.1979,38.75512 1.30589,5.07543 1.74992,13.17104 2.13041,38.84212 0.5371,36.23764 0.21744,38.91278 -5.03233,42.11377 -3.06562,1.86922 -5.37049,1.94601 -56.69553,1.88879 -29.425,-0.0328 -54.4,-0.42802 -55.5,-0.87824 z M 100.5,270.34345 C 75.058529,264.91535 53.257222,247.87531 42.001214,224.62043 36.81941,213.91484 34.033675,202.90132 33.370873,190.5 32.72134,178.34697 38.752074,116.58128 42.021216,101.90475 50.639952,63.211687 67.735825,41.695807 97.5,32.08235 115.11153,26.394045 112.08416,26.5 257,26.5 c 133.5,0 133.5,0 143.95686,2.311091 5.75128,1.271101 13.7567,3.592421 17.78983,5.15849 26.23643,10.187638 42.86705,33.23823 50.16505,69.530419 3.46273,17.21978 9.34855,76.54152 8.68405,87.52437 -1.93089,31.91374 -20.47064,59.70287 -48.59774,72.84288 -13.89027,6.48906 -19.24928,7.57611 -37.49805,7.60629 -18.74987,0.031 -24.17065,-1.10415 -38.22137,-8.00391 -9.9877,-4.90456 -22.18518,-13.98189 -27.23997,-20.2719 -3.1686,-3.94289 -3.1686,-3.94289 -12.35363,5.2928 -10.29822,10.35502 -19.049,15.83303 -32.18503,20.1479 -11.50961,3.78064 -32.1885,4.48759 -44.59683,1.52464 -18.15378,-4.33489 -33.008,-13.58649 -43.9646,-27.38233 -3.74802,-4.71927 -3.74802,-4.71927 -7.50695,-0.13199 -9.53529,11.63657 -29.14753,23.42589 -45.43162,27.30987 -10.31954,2.46135 -28.91809,2.64255 -39.5,0.38483 z"
       id="path837" />
  </g>
</svg>
