<?xml version="1.0" encoding="UTF-8" standalone="no"?>
<svg
   xmlns:dc="http://purl.org/dc/elements/1.1/"
   xmlns:cc="http://creativecommons.org/ns#"
   xmlns:rdf="http://www.w3.org/1999/02/22-rdf-syntax-ns#"
   xmlns:svg="http://www.w3.org/2000/svg"
   xmlns="http://www.w3.org/2000/svg"
   xmlns:sodipodi="http://sodipodi.sourceforge.net/DTD/sodipodi-0.dtd"
   xmlns:inkscape="http://www.inkscape.org/namespaces/inkscape"
   version="1.1"
   id="svg2"
   width="512"
   height="512"
   viewBox="0 0 512 512"
   sodipodi:docname="shopping-cart.svg"
   inkscape:version="1.0.1 (3bc2e813f5, 2020-09-07)">
  <metadata
     id="metadata8">
    <rdf:RDF>
      <cc:Work
         rdf:about="">
        <dc:format>image/svg+xml</dc:format>
        <dc:type
           rdf:resource="http://purl.org/dc/dcmitype/StillImage" />
        <dc:title></dc:title>
      </cc:Work>
    </rdf:RDF>
  </metadata>
  <defs
     id="defs6" />
  <sodipodi:namedview
     pagecolor="#ffffff"
     bordercolor="#666666"
     borderopacity="1"
     objecttolerance="10"
     gridtolerance="10"
     guidetolerance="10"
     inkscape:pageopacity="0"
     inkscape:pageshadow="2"
     inkscape:window-width="1920"
     inkscape:window-height="1009"
     id="namedview4"
     showgrid="false"
     inkscape:zoom="1.4355469"
     inkscape:cx="256"
     inkscape:cy="256"
     inkscape:window-x="-8"
     inkscape:window-y="-8"
     inkscape:window-maximized="1"
     inkscape:current-layer="g10" />
  <g
     inkscape:groupmode="layer"
     inkscape:label="Image"
     id="g10">
    <path
       style="fill:#000000"
       d="m 133,510.47237 c -21.09342,-5.72555 -39.260446,-23.503 -45.414602,-44.44075 -4.977929,-16.93597 -1.774813,-38.55755 7.799395,-52.64727 2.565598,-3.77561 2.565598,-3.77561 -3.720945,-10.32998 C 84.463707,395.54748 80.573444,390.09662 76.158243,381.32863 69.590524,368.28603 69.740547,369.4956 56.954893,226.5 50.365161,152.8 44.744697,91.093883 44.464973,89.375295 43.956385,86.25059 43.956385,86.25059 29.698299,85.821637 16.90088,85.436628 14.986822,85.142069 11.014511,82.946342 8.5803751,81.600854 5.2188273,78.548736 3.5444047,76.163858 0.78044746,72.227157 0.5,71.106635 0.5,64 c 0,-7.08427 0.28492862,-8.232255 3,-12.087085 1.65,-2.342653 4.9832777,-5.306417 7.407284,-6.586142 4.303173,-2.271809 5.047278,-2.326254 31.5,-2.304811 24.297066,0.0197 27.517448,0.214841 31.208804,1.891154 4.308601,1.956615 8.484559,6.591208 10.342781,11.478701 C 84.789125,58.575556 91,120.38216 91,126.46059 c 0,0.61853 1.950411,1.64626 4.334247,2.28383 5.258853,1.40653 10.390243,6.37498 11.588073,11.2201 0.48073,1.94451 1.78934,9.38548 2.90802,16.53548 10.72231,68.53082 64.20013,123.56671 134.7346,138.66006 9.55071,2.04371 13.6569,2.33894 32.43506,2.33208 16.526,-0.006 23.58214,-0.41876 30.5,-1.78393 74.03528,-14.61015 128.96292,-72.52642 138.59309,-146.134 1.47826,-11.29896 3.83463,-16.11986 9.42729,-19.28738 3.71275,-2.10278 5.17208,-2.25503 21.76174,-2.27038 13.84257,-0.0128 18.6058,0.32762 21.5,1.5366 7.95545,3.32318 13.21788,11.05336 13.21788,19.41622 0,4.49609 -39.15822,164.58475 -43.58928,178.20394 -2.17122,6.67344 -8.52929,12.2933 -15.52846,13.72552 -2.96025,0.60575 -79.18226,5.37851 -169.38226,10.60614 -90.2,5.22763 -165.26661,9.61511 -166.81469,9.74996 -2.8147,0.24517 -2.8147,0.24517 1.01656,5.71573 4.38587,6.26248 11.756,12.21032 18.29813,14.76694 4.18533,1.6356 13.41558,1.79367 132,2.26053 127.5,0.50197 127.5,0.50197 135.97598,3.45915 16.32001,5.69388 29.26978,16.75507 36.99106,31.59635 5.70764,10.97081 7.35971,18.93768 6.72834,32.44647 -0.81204,17.37423 -6.33153,30.08226 -18.24672,42.01104 -8.2054,8.21476 -19.39805,14.56856 -30.073,17.07173 -10.22589,2.39787 -27.64667,1.53564 -36.61721,-1.81233 -13.76144,-5.13603 -26.48964,-15.41549 -33.57904,-27.11887 -7.99309,-13.1952 -11.19412,-32.50476 -7.78538,-46.96362 C 322.27731,430.94132 323,427.67882 323,427.43795 323,427.19708 297.52686,427 266.39301,427 c -53.47304,0 -56.56986,0.0968 -55.93631,1.74777 3.59478,9.36784 3.26012,29.79983 -0.67037,40.92838 -6.40806,18.14336 -21.37901,32.97806 -39.78633,39.42423 -8.39331,2.93931 -28.4816,3.6842 -37,1.37199 z M 266,256.2966 c -54.06621,-4.25303 -100.27767,-43.09478 -114.22556,-96.0091 -2.93034,-11.11688 -3.11187,-12.86845 -3.19078,-30.7875 -0.0891,-20.24498 0.4239,-24.06245 5.44296,-40.5 13.56,-44.409383 53.34668,-79.4282158 99.35875,-87.4520485 11.52329,-2.00949456 33.70597,-2.00949456 45.22926,0 C 344.6523,9.5762495 384.19392,44.365123 398.01411,89 c 4.93731,15.94599 6.28822,26.39131 5.69058,44 -0.43607,12.84829 -1.04445,17.51658 -3.55616,27.2875 -5.51879,21.46895 -16.49576,40.92414 -32.31927,57.28152 C 346.28113,239.84416 319.409,252.77846 288,255.99305 c -9.34055,0.95597 -13.05468,1.00722 -22,0.30355 z m 7.78984,-88.22047 c 2.04059,-1.05813 14.80092,-13.09563 28.35629,-26.75 23.07388,-23.2424 24.70882,-25.12915 25.62877,-29.57613 1.93639,-9.36034 -2.3986,-18.476729 -10.83179,-22.779022 -5.03506,-2.568699 -12.83789,-2.587091 -17.73295,-0.0418 -2.04059,1.061049 -10.22934,8.486049 -18.19723,16.500002 C 273.04505,113.44313 266.13314,120 265.65314,120 c -0.47999,0 -3.29531,-2.21411 -6.25625,-4.92024 -6.30343,-5.76098 -10.75588,-7.4919 -17.58379,-6.83582 -14.13695,1.35838 -22.64983,17.89458 -15.46792,30.04632 3.33593,5.64438 26.37993,28.2584 30.70994,30.13693 4.86203,2.10934 12.29038,1.95351 16.73472,-0.35106 z"
       id="path837" />
  </g>
</svg>
