<?xml version="1.0" encoding="UTF-8" standalone="no"?>
<svg
   xmlns:dc="http://purl.org/dc/elements/1.1/"
   xmlns:cc="http://creativecommons.org/ns#"
   xmlns:rdf="http://www.w3.org/1999/02/22-rdf-syntax-ns#"
   xmlns:svg="http://www.w3.org/2000/svg"
   xmlns="http://www.w3.org/2000/svg"
   xmlns:sodipodi="http://sodipodi.sourceforge.net/DTD/sodipodi-0.dtd"
   xmlns:inkscape="http://www.inkscape.org/namespaces/inkscape"
   version="1.1"
   id="svg2"
   width="512"
   height="512"
   viewBox="0 0 512 512"
   sodipodi:docname="transaction-history.svg"
   inkscape:version="1.0.1 (3bc2e813f5, 2020-09-07)">
  <metadata
     id="metadata8">
    <rdf:RDF>
      <cc:Work
         rdf:about="">
        <dc:format>image/svg+xml</dc:format>
        <dc:type
           rdf:resource="http://purl.org/dc/dcmitype/StillImage" />
        <dc:title></dc:title>
      </cc:Work>
    </rdf:RDF>
  </metadata>
  <defs
     id="defs6" />
  <sodipodi:namedview
     pagecolor="#ffffff"
     bordercolor="#666666"
     borderopacity="1"
     objecttolerance="10"
     gridtolerance="10"
     guidetolerance="10"
     inkscape:pageopacity="0"
     inkscape:pageshadow="2"
     inkscape:window-width="1920"
     inkscape:window-height="1009"
     id="namedview4"
     showgrid="false"
     inkscape:zoom="1.4355469"
     inkscape:cx="256"
     inkscape:cy="256"
     inkscape:window-x="-8"
     inkscape:window-y="-8"
     inkscape:window-maximized="1"
     inkscape:current-layer="g10" />
  <g
     inkscape:groupmode="layer"
     inkscape:label="Image"
     id="g10">
    <path
       style="fill:#000000"
       d="m 114.69493,510.1373 c -1.54278,-1.01724 -3.56778,-2.92677 -4.5,-4.24341 C 108.6162,503.66412 108.46572,486.77236 108,259.5 107.5,15.5 107.5,15.5 105.37494,9.5 104.20615,6.2 102.9205,2.7125 102.51795,1.75 101.8227,0.08770097 109.57371,0 257.18291,0 428.51924,0 417.86836,-0.38541093 430.34792,6.2661241 438.02764,10.35937 447.64429,19.968235 451.66969,27.570624 458.19959,39.903033 458,37.128296 458,115.57529 c 0,71.21229 0,71.21229 -7.54874,68.81512 -16.32832,-5.18521 -40.1987,-7.03126 -56.9976,-4.408 -33.76664,5.27288 -63.95778,23.6287 -84.73473,51.51759 -5.95992,8 -5.95992,8 -67.58943,8.5 -61.17093,0.49628 -61.65554,0.51623 -65.1295,2.68093 -9.46424,5.89738 -9.36825,19.06494 0.18093,24.81907 3.19502,1.92525 5.36747,2.01085 58.12366,2.29031 51.16372,0.27103 54.76962,0.4039 54.27812,2 -1.50891,4.90009 -3.57194,15.49232 -4.17157,21.41815 -0.67882,6.70847 -0.67882,6.70847 -52.79498,7 -50.06565,0.28007 -52.24675,0.37023 -55.43523,2.29154 -9.58973,5.77856 -9.58973,19.22144 0,25 3.19091,1.92277 5.36849,2.01123 56.39371,2.29076 53.07465,0.29076 53.07465,0.29076 54.31466,6.5 0.68201,3.41508 2.71758,10.12962 4.52349,14.9212 3.28347,8.71196 3.28347,8.71196 -54.31466,9 C 179.5,360.5 179.5,360.5 175.72576,362.84654 c -9.27373,5.76571 -9.03054,18.93758 0.45517,24.65346 3.21794,1.93906 5.3582,2.00865 70.24284,2.28398 66.92376,0.28397 66.92376,0.28397 74.09417,7.57165 19.84417,20.16868 45.17867,33.25629 72.85045,37.63399 16.66344,2.63617 40.8274,0.78204 57.08287,-4.38003 7.54874,-2.39717 7.54874,-2.39717 7.54215,34.74662 -0.006,34.70222 -0.13048,37.3317 -1.8913,40.00249 -2.9613,4.49168 -6.98733,6.6273 -12.50763,6.63471 -3.61068,0.005 -9.61569,-1.75347 -22.75,-6.66142 C 403,498.66398 403,498.66398 385.15552,505.33199 373.29125,509.76536 365.86629,512 363,512 c -2.86629,0 -10.29125,-2.23464 -22.15552,-6.66801 C 323,498.66398 323,498.66398 305.15552,505.33199 293.29125,509.76536 285.86629,512 283,512 c -2.86629,0 -10.29125,-2.23464 -22.15552,-6.66801 C 243,498.66398 243,498.66398 225.15552,505.33199 213.29125,509.76536 205.86629,512 203,512 c -2.86629,0 -10.29125,-2.23464 -22.15552,-6.66801 -17.84448,-6.66801 -17.84448,-6.66801 -35.68896,0 -19.5525,7.30625 -25.29387,8.21198 -30.46059,4.80531 z M 310.81907,207.5 c 9.58973,-5.77856 9.58973,-19.22144 0,-25 -3.22712,-1.94459 -5.09209,-2 -67.31907,-2 -62.22698,0 -64.09195,0.0554 -67.31907,2 -11.40514,6.87249 -8.78821,23.39111 4.20941,26.57072 1.71031,0.4184 31.00966,0.68615 65.10966,0.595 60.07151,-0.16057 62.10324,-0.22793 65.31907,-2.16572 z m 0,-60 c 9.58973,-5.77856 9.58973,-19.22144 0,-25 -3.22712,-1.94459 -5.09209,-2 -67.31907,-2 -62.22698,0 -64.09195,0.0554 -67.31907,2 -11.40514,6.87249 -8.78821,23.39111 4.20941,26.57072 1.71031,0.4184 31.00966,0.68615 65.10966,0.595 60.07151,-0.16057 62.10324,-0.22793 65.31907,-2.16572 z m 79.25139,-0.23841 c 9.39497,-5.81703 9.26083,-19.02973 -0.25139,-24.76159 -2.86639,-1.72723 -5.09209,-2 -16.31907,-2 -11.22698,0 -13.45268,0.27277 -16.31907,2 -9.06559,5.46273 -9.69129,18.25166 -1.18448,24.21007 3.70654,2.59616 7.85499,3.2191 19.57401,2.93929 9.24597,-0.22076 11.63568,-0.61428 14.5,-2.38777 z M 310.81907,87.5 c 9.58973,-5.77856 9.58973,-19.22144 0,-25 -3.22712,-1.944593 -5.09209,-2 -67.31907,-2 -64,0 -64,0 -67.77424,2.346543 -11.04483,6.866846 -8.1597,23.086967 4.66458,26.224179 C 182.10065,89.489117 211.4,89.756866 245.5,89.66572 305.57151,89.505155 307.60324,89.437791 310.81907,87.5 Z m 79.25139,-0.238409 c 9.39497,-5.817034 9.26083,-19.029735 -0.25139,-24.761591 -2.86639,-1.727227 -5.09209,-2 -16.31907,-2 -11.90101,0 -13.31907,0.198372 -16.77424,2.346543 -11.04755,6.86854 -8.19151,22.950294 4.66458,26.265302 1.71031,0.441013 8.09137,0.682896 14.18012,0.537518 9.24597,-0.22076 11.63568,-0.614284 14.5,-2.387772 z M 392,405.50308 C 372.58226,401.17221 355.86282,392.01482 341.924,378.076 329.55351,365.70551 320.82233,350.7952 315.81055,333.48185 313.77768,326.45927 313.5,323.33674 313.5,307.5 c 0,-21.11256 1.33609,-27.31797 9.50337,-44.13796 12.45695,-25.6543 34.98324,-44.29233 63.51478,-52.55149 C 393.54073,208.77768 396.66326,208.5 412.5,208.5 c 21.11256,0 27.31797,1.33609 44.13796,9.50337 25.6543,12.45695 44.29233,34.98324 52.55149,63.51478 2.03287,7.02258 2.31055,10.14511 2.31055,25.98185 0,15.83674 -0.27768,18.95927 -2.31055,25.98185 -5.01178,17.31335 -13.74296,32.22366 -26.11345,44.59415 -12.22581,12.2258 -27.16288,21.02875 -44.076,25.97555 -9.80784,2.86863 -36.89556,3.7052 -47,1.45153 z m 30.00078,-28.38904 c 2.52618,-2.4031 4.05791,-4.90998 4.52662,-7.40839 0.53238,-2.83785 1.47233,-4.17127 3.7825,-5.36591 5.81512,-3.00711 13.32471,-11.13763 16.27194,-17.61737 2.35373,-5.17489 2.82973,-7.56909 2.82758,-14.22237 -0.006,-17.35308 -6.54591,-25.70284 -29.25714,-37.35153 -15.32147,-7.85845 -17.35998,-9.81221 -15.56455,-14.91751 1.48524,-4.22324 4.70793,-5.19991 17.21193,-5.21622 12.27087,-0.016 15.42351,-0.9404 19.08576,-5.59621 6.49362,-8.25529 0.99046,-21.08106 -9.82962,-22.9091 -3.35808,-0.56735 -4.35113,-1.26888 -5.452,-3.85156 -2.88145,-6.75998 -10.22,-10.43097 -17.07078,-8.53938 -4.24713,1.17269 -9.23419,6.77169 -10.08871,11.32665 -0.51182,2.72827 -1.57455,4.02718 -4.87962,5.96408 -13.97953,8.19255 -21.32388,25.42049 -17.12035,40.15988 2.16267,7.58324 7.41324,15.58388 12.81732,19.53059 2.33109,1.70244 9.99024,5.9869 17.02035,9.52102 13.80652,6.94071 15.72119,8.85901 14.00496,14.03146 -1.44938,4.36824 -4.48798,5.31665 -17.08663,5.33309 -12.27087,0.016 -15.42351,0.9404 -19.08576,5.59621 -6.49362,8.25529 -0.99046,21.08106 9.82962,22.9091 3.35808,0.56735 4.35113,1.26888 5.452,3.85156 4.10637,9.63369 15.06245,11.94656 22.60458,4.77191 z M 6.6050248,154.07832 C 5.0127884,153.02864 2.8615501,150.82971 1.8244952,149.19179 0.02324331,146.34691 -0.04851666,143.55994 0.21947049,86.85688 0.5,27.5 0.5,27.5 3.4308824,21.711975 7.1728481,14.322189 14.712239,6.7827986 21.883294,3.2595629 27.026996,0.73239316 28.468458,0.5 39,0.5 49.734284,0.5 50.88539,0.69514979 56.288025,3.4308824 63.670183,7.1689856 70.831014,14.329817 74.569118,21.711975 77.5,27.5 77.5,27.5 77.807969,86.5 c 0.34243,65.60195 0.563157,63.25341 -6.346197,67.52363 -2.99584,1.85153 -5.053827,1.97595 -32.579806,1.96978 -27.228129,-0.006 -29.5941814,-0.14649 -32.2769412,-1.91509 z"
       id="path837" />
  </g>
</svg>
