<?xml version="1.0" encoding="UTF-8" standalone="no"?>
<svg
   xmlns:dc="http://purl.org/dc/elements/1.1/"
   xmlns:cc="http://creativecommons.org/ns#"
   xmlns:rdf="http://www.w3.org/1999/02/22-rdf-syntax-ns#"
   xmlns:svg="http://www.w3.org/2000/svg"
   xmlns="http://www.w3.org/2000/svg"
   xmlns:sodipodi="http://sodipodi.sourceforge.net/DTD/sodipodi-0.dtd"
   xmlns:inkscape="http://www.inkscape.org/namespaces/inkscape"
   version="1.1"
   id="svg2"
   width="512"
   height="512"
   viewBox="0 0 512 512"
   sodipodi:docname="weighing-machine.svg"
   inkscape:version="1.0.1 (3bc2e813f5, 2020-09-07)">
  <metadata
     id="metadata8">
    <rdf:RDF>
      <cc:Work
         rdf:about="">
        <dc:format>image/svg+xml</dc:format>
        <dc:type
           rdf:resource="http://purl.org/dc/dcmitype/StillImage" />
        <dc:title></dc:title>
      </cc:Work>
    </rdf:RDF>
  </metadata>
  <defs
     id="defs6" />
  <sodipodi:namedview
     pagecolor="#ffffff"
     bordercolor="#666666"
     borderopacity="1"
     objecttolerance="10"
     gridtolerance="10"
     guidetolerance="10"
     inkscape:pageopacity="0"
     inkscape:pageshadow="2"
     inkscape:window-width="1920"
     inkscape:window-height="1009"
     id="namedview4"
     showgrid="false"
     inkscape:zoom="1.4355469"
     inkscape:cx="256"
     inkscape:cy="256"
     inkscape:window-x="-8"
     inkscape:window-y="-8"
     inkscape:window-maximized="1"
     inkscape:current-layer="g10" />
  <g
     inkscape:groupmode="layer"
     inkscape:label="Image"
     id="g10">
    <path
       style="fill:#000000"
       d="M 79.025436,478.02544 C 76.321633,475.32163 75.862194,472.87409 76.204946,463 76.5,454.5 76.5,454.5 256,454.5 c 179.5,0 179.5,0 179.79505,8.5 0.34276,9.87409 -0.11668,12.32163 -2.82049,15.02544 C 431.02352,479.97648 428.91522,480 256,480 83.084776,480 80.976477,479.97648 79.025436,478.02544 Z m -14.998262,-40.762 c -6.166594,-2.17646 -14.196787,-10.37815 -16.350881,-16.70007 -0.921961,-2.70581 -1.668688,-7.20199 -1.659394,-9.99151 0.0093,-2.78952 7.36048,-49.0349 16.335968,-102.76751 15.480724,-92.67682 16.490596,-98.04521 19.657983,-104.5 3.980539,-8.11191 13.303874,-17.91069 20.51728,-21.56355 12.01265,-6.0832 2.8741,-5.74192 153.40337,-5.72893 111.67288,0.01 138.50969,0.26366 142.5685,1.34948 13.13293,3.51336 25.47074,13.67813 31.48915,25.943 3.16739,6.45479 4.17726,11.82318 19.65798,104.5 8.97549,53.73261 16.32668,99.97799 16.33597,102.76751 0.0263,7.89914 -2.62803,14.20351 -8.41788,19.99336 -9.2454,9.24539 10.09503,8.44534 -201.99336,8.35583 C 87.829469,438.85026 68.037839,438.67899 64.027174,437.26344 Z M 270,397.93181 c 47.47015,-7.69072 82.02172,-51.87649 76.85273,-98.28198 C 343.1166,266.10797 325.86998,239.92227 298.5,226.2354 c -15.61232,-7.80723 -35.35865,-11.27672 -52.7039,-9.26023 -45.06212,5.23875 -75.98218,37.03727 -80.73122,83.02483 -3.4755,33.65515 13.65241,67.18437 43.7966,85.73526 8.33768,5.13105 22.77994,10.56014 32.30524,12.14408 7.58085,1.2606 21.22303,1.28543 28.83328,0.0525 z M 235,380.63804 C 206.1723,371.97129 185.41988,348.58216 180.53237,319.25 179.8242,315 179.8242,315 184.83031,315 c 6.58211,0 8.13897,-0.69732 9.66618,-4.32949 1.50807,-3.58663 0.30902,-8.16905 -2.53593,-9.69162 C 190.95457,300.4405 187.81235,300 184.97784,300 c -5.15364,0 -5.15364,0 -4.44547,-4.25 2.05933,-12.35898 8.09619,-25.96815 15.95668,-35.97183 10.93247,-13.91327 30.80437,-25.59666 46.76095,-27.49242 4.75,-0.56433 4.75,-0.56433 4.75,3.10708 0,8.3591 4.18054,12.78261 10.5659,11.17999 3.03025,-0.76055 5.4341,-5.70618 5.4341,-11.17999 0,-3.67141 0,-3.67141 4.94529,-3.08572 7.1114,0.84224 18.09964,4.89756 26.01991,9.60291 19.15577,11.38023 32.77461,31.4676 36.50243,53.83998 0.70817,4.25 0.70817,4.25 -4.87973,4.25 -6.72356,0 -9.5879,2.18851 -9.5879,7.32569 0,5.06914 3.36151,7.67431 9.90235,7.67431 5.27345,0 5.27345,0 4.56528,4.25 -4.93717,29.63022 -26.57833,53.70507 -55.44753,61.68296 C 265.17399,383.93024 264,383.78715 264,379.46788 c 0,-5.34626 -2.43186,-10.28718 -5.4341,-11.0407 C 252.26112,366.84479 248,371.08867 248,378.95034 c 0,3.76413 -0.19389,4.04588 -2.75,3.99608 -1.5125,-0.0295 -6.125,-1.06824 -10.25,-2.30838 z m 28.19316,-50.81406 c 5.32253,-1.59467 12.21012,-7.87538 14.26315,-13.00639 1.85718,-4.64154 2.21072,-12.92254 0.718,-16.81759 -0.87417,-2.28105 -0.17933,-3.29832 7.9338,-11.6153 C 293.95869,280.33688 295,278.84831 295,275.67366 295,271.26782 291.8814,268 287.67674,268 c -2.36429,0 -4.76543,1.78411 -12.15788,9.03363 -8.69099,8.52295 -9.36543,8.9752 -11.9304,8 C 262.0932,284.46513 258.63464,284 255.90278,284 c -21.59775,0 -31.55843,27.26201 -15.03054,41.13801 6.62516,5.56216 14.13458,7.13866 22.32092,4.68597 z M 252.5,314.84527 c -3.13965,-1.71726 -4.5,-3.96202 -4.5,-7.42562 0,-4.96022 2.96053,-7.8742 8,-7.8742 4.90757,0 8,2.89279 8,7.48355 0,4.16918 -0.92949,5.88318 -4.07152,7.50799 -3.33713,1.72569 -4.73125,1.78355 -7.42848,0.30828 z M 206,145.56465 c 0,-14.43534 0,-14.43534 -51.75,-14.80936 C 103.95655,130.3918 102.28937,130.3177 95.016335,128.12238 74.69707,121.98914 58.850457,108.7892 49.572987,90.268921 44.014378,79.172466 42.838708,73.376851 42.279865,54.31652 41.77605,37.133041 41.77605,37.133041 44.342571,34.56652 46.909091,32 46.909091,32 256,32 465.09091,32 465.09091,32 467.54545,34.454545 469.9192,36.828294 470,37.372819 470,50.996704 c 0,17.235354 -1.74098,26.642549 -6.97774,37.703556 -9.30094,19.64529 -24.97043,33.06283 -46.03859,39.42212 -7.27304,2.19532 -8.94022,2.26942 -59.23367,2.63291 C 306,131.12931 306,131.12931 306,145.56465 306,160 306,160 256,160 c -50,0 -50,0 -50,-14.43535 z"
       id="path837" />
  </g>
</svg>
