<?xml version="1.0" standalone="no"?>
<!DOCTYPE svg PUBLIC "-//W3C//DTD SVG 20010904//EN"
 "http://www.w3.org/TR/2001/REC-SVG-20010904/DTD/svg10.dtd">
<svg version="1.0" xmlns="http://www.w3.org/2000/svg"
 width="640.000000pt" height="1280.000000pt" viewBox="0 0 640.000000 1280.000000"
 preserveAspectRatio="xMidYMid meet">
<metadata>
Created by potrace 1.15, written by Peter Selinger 2001-2017
</metadata>
<g transform="translate(0.000000,1280.000000) scale(0.100000,-0.100000)"
fill="#000000" stroke="none">
<path d="M5053 12790 c-24 -5 -62 -18 -87 -28 l-44 -20 24 -48 c37 -76 48
-179 34 -304 -12 -111 -66 -411 -125 -700 -93 -453 -142 -579 -259 -668 -66
-51 -89 -62 -238 -118 -196 -72 -291 -126 -380 -215 -92 -92 -209 -247 -260
-345 -67 -128 -81 -230 -54 -384 24 -132 36 -163 77 -202 31 -30 36 -38 21
-38 -21 0 -122 -40 -197 -77 -45 -23 -90 -53 -296 -195 l-56 -39 -89 25 c-135
38 -276 88 -414 146 -69 28 -127 53 -128 55 -2 2 11 25 28 51 67 96 234 383
291 499 77 156 97 246 81 359 -6 43 -22 101 -35 130 l-24 51 19 55 c11 30 31
102 46 160 25 97 27 120 27 300 -1 285 -29 389 -160 585 -179 268 -404 356
-918 355 -380 -1 -604 -75 -855 -285 -188 -156 -278 -295 -332 -509 -68 -270
-60 -544 24 -794 62 -182 140 -383 187 -480 44 -91 47 -95 53 -67 4 17 17 64
29 105 l23 74 37 -66 c43 -76 126 -172 169 -194 17 -9 32 -14 34 -11 3 2 -6
26 -20 53 -19 39 -46 132 -46 159 0 13 30 1 70 -29 30 -21 57 -54 78 -93 18
-34 60 -103 94 -154 54 -82 81 -145 87 -210 1 -3 -32 -9 -73 -13 -41 -4 -98
-14 -126 -22 -83 -25 -102 -51 -155 -209 -47 -141 -84 -288 -85 -336 0 -23
-11 -31 -82 -65 -133 -62 -436 -231 -497 -277 -61 -47 -115 -118 -131 -175
-17 -63 -24 -261 -11 -327 39 -195 361 -1025 521 -1345 59 -117 205 -340 315
-481 l83 -105 1 -145 c1 -299 57 -734 173 -1333 60 -306 44 -280 175 -291 81
-7 81 -7 86 -39 131 -740 158 -973 177 -1531 12 -357 12 -1131 0 -1585 l-8
-325 49 -47 c27 -26 65 -52 85 -60 24 -9 34 -17 30 -28 -3 -8 -16 -46 -30 -85
-37 -106 -57 -273 -63 -525 -5 -218 -5 -226 16 -252 27 -33 92 -56 207 -70
114 -15 157 -4 221 55 48 44 74 88 92 152 12 46 37 355 47 588 6 142 9 159 26
168 50 27 96 207 101 394 1 55 -7 170 -17 255 -17 137 -18 197 -12 510 9 541
40 1174 71 1466 14 130 41 303 48 310 1 2 3 -108 3 -244 0 -230 10 -402 49
-857 25 -287 45 -464 65 -600 21 -136 39 -333 65 -695 l15 -215 31 -26 c38
-34 131 -79 175 -86 39 -6 39 -5 19 -98 -17 -82 -20 -262 -4 -333 10 -48 12
-50 59 -65 27 -9 97 -22 154 -28 118 -14 200 -3 231 31 17 19 18 19 46 -9 52
-53 296 -131 407 -131 122 0 304 73 350 141 20 28 23 43 19 85 -16 156 -96
202 -374 211 l-151 5 -38 92 c-20 50 -50 117 -66 148 -30 61 -32 69 -20 67 41
-7 42 23 2 88 -63 102 -133 490 -161 888 -14 207 -6 788 16 1118 28 423 55
770 81 1032 14 143 28 290 31 328 l6 67 40 12 39 12 -6 75 c-3 42 -9 252 -12
466 -7 396 2 690 31 1090 29 390 42 494 92 720 34 153 35 166 29 300 -8 211
-68 481 -137 616 l-28 56 262 6 c271 6 363 16 590 63 428 90 652 209 796 423
51 75 224 425 309 626 62 145 112 282 155 420 l25 80 -21 24 c-29 31 -127 77
-194 91 -35 8 -53 16 -53 26 0 43 -43 401 -57 474 -18 96 -19 289 -4 495 10
131 3 243 -20 315 -26 82 -112 191 -190 241 -60 38 -123 44 -177 15 -33 -17
-33 -17 -63 14 -17 17 -51 36 -75 42 -24 7 -44 18 -44 25 0 36 55 289 90 410
106 376 193 544 314 605 22 11 43 22 44 23 2 2 -12 29 -32 59 -40 63 -102 108
-181 132 -61 18 -225 26 -282 14z m-93 -3401 c-84 -118 -254 -217 -413 -240
-76 -11 -283 -5 -397 12 -81 12 -165 39 -153 49 14 13 132 50 254 81 145 36
155 39 210 82 45 34 47 34 105 25 53 -8 321 6 333 18 2 2 22 4 43 4 l39 0 -21
-31z"/>
</g>
</svg>
