<?xml version="1.0" encoding="UTF-8" standalone="no"?>
<!-- Created with Inkscape (http://www.inkscape.org/) -->

<svg
   width="135.81001mm"
   height="136.13521mm"
   viewBox="0 0 135.81001 136.13521"
   version="1.1"
   id="svg1"
   xml:space="preserve"
   inkscape:export-filename="cart.svg"
   inkscape:export-xdpi="96"
   inkscape:export-ydpi="96"
   sodipodi:docname="cart.svg"
   inkscape:version="1.3 (0e150ed6c4, 2023-07-21)"
   xmlns:inkscape="http://www.inkscape.org/namespaces/inkscape"
   xmlns:sodipodi="http://sodipodi.sourceforge.net/DTD/sodipodi-0.dtd"
   xmlns:xlink="http://www.w3.org/1999/xlink"
   xmlns="http://www.w3.org/2000/svg"
   xmlns:svg="http://www.w3.org/2000/svg"><sodipodi:namedview
     id="namedview1"
     pagecolor="#ffffff"
     bordercolor="#000000"
     borderopacity="0.25"
     inkscape:showpageshadow="2"
     inkscape:pageopacity="0.0"
     inkscape:pagecheckerboard="0"
     inkscape:deskcolor="#d1d1d1"
     inkscape:document-units="mm"
     inkscape:zoom="1.6733823"
     inkscape:cx="256.367"
     inkscape:cy="257.26339"
     inkscape:window-width="1920"
     inkscape:window-height="1057"
     inkscape:window-x="-8"
     inkscape:window-y="-8"
     inkscape:window-maximized="1"
     inkscape:current-layer="layer1" /><defs
     id="defs1"><linearGradient
       id="swatch18"
       inkscape:swatch="solid"><stop
         style="stop-color:#6a0080;stop-opacity:1;"
         offset="0"
         id="stop18" /></linearGradient><linearGradient
       inkscape:collect="always"
       xlink:href="#swatch18"
       id="linearGradient18"
       x1="32.219772"
       y1="118.62901"
       x2="168.02979"
       y2="118.62901"
       gradientUnits="userSpaceOnUse" /></defs><g
     inkscape:label="Layer 1"
     inkscape:groupmode="layer"
     id="layer1"
     transform="translate(-32.219772,-50.561414)"><path
       style="fill:url(#linearGradient18);stroke:none;fill-opacity:1"
       d="m 93.154618,50.858684 c -13.84766,1.818187 -27.94435,0.693885 -39.154455,10.811169 -7.227879,6.523269 -10.259215,17.267235 -12.538105,26.382796 -2.1021,8.408401 -3.701583,16.915591 -5.458257,25.400001 -2.387842,11.53283 -4.606983,23.92292 -3.48368,35.71874 0.810285,8.50882 2.347021,16.94443 8.292115,23.54792 6.746999,7.4942 17.317593,10.32642 26.942382,11.71333 19.99162,2.88074 41.883782,3.01665 61.912492,0.38298 6.25995,-0.82314 12.72193,-1.89166 18.52084,-4.50588 24.28737,-10.94899 21.44552,-42.41726 16.4356,-64.21126 -0.88638,-3.85593 -1.58398,-7.76198 -2.35982,-11.64166 -2.78497,-13.92669 -5.18252,-31.801567 -15.68696,-42.309654 -9.90174,-9.905169 -25.24254,-10.572982 -38.3409,-11.146598 -4.91193,-0.215103 -10.177232,-0.785772 -15.081252,-0.141884 m -22.75417,28.288162 c 8.57709,-1.656738 6.80604,9.652261 8.7484,14.726636 2.49684,6.522958 8.57594,11.206148 15.32868,12.644258 9.757552,2.07804 20.836842,-1.53 25.595992,-10.792175 2.72304,-5.299531 0.58317,-17.369675 9.06443,-16.64384 7.52201,0.643743 4.4415,12.472381 3.13682,16.908423 -3.42342,11.639992 -13.88574,19.877212 -25.6264,21.938162 -13.871372,2.43498 -28.507532,-3.03254 -35.929442,-15.32358 -2.9561,-4.895444 -4.54299,-10.95478 -4.55181,-16.668748 -0.004,-2.896972 0.89882,-6.145046 4.23333,-6.789136 z"
       id="path1" /></g></svg>
