<?xml version="1.0" encoding="UTF-8" standalone="no"?>
<!-- Created with Inkscape (http://www.inkscape.org/) -->

<svg
   width="135.46666mm"
   height="135.46666mm"
   viewBox="0 0 135.46666 135.46666"
   version="1.1"
   id="svg1"
   xml:space="preserve"
   inkscape:export-filename="items.svg"
   inkscape:export-xdpi="96"
   inkscape:export-ydpi="96"
   xmlns:inkscape="http://www.inkscape.org/namespaces/inkscape"
   xmlns:sodipodi="http://sodipodi.sourceforge.net/DTD/sodipodi-0.dtd"
   xmlns:xlink="http://www.w3.org/1999/xlink"
   xmlns="http://www.w3.org/2000/svg"
   xmlns:svg="http://www.w3.org/2000/svg"><sodipodi:namedview
     id="namedview1"
     pagecolor="#ffffff"
     bordercolor="#000000"
     borderopacity="0.25"
     inkscape:showpageshadow="2"
     inkscape:pageopacity="0.0"
     inkscape:pagecheckerboard="0"
     inkscape:deskcolor="#d1d1d1"
     inkscape:document-units="mm" /><defs
     id="defs1"><linearGradient
       id="swatch11"
       inkscape:swatch="solid"><stop
         style="stop-color:#000000;stop-opacity:1;"
         offset="0"
         id="stop11" /></linearGradient><linearGradient
       id="swatch10"
       inkscape:swatch="solid"><stop
         style="stop-color:#800080;stop-opacity:1;"
         offset="0"
         id="stop10" /></linearGradient><linearGradient
       id="swatch8"
       inkscape:swatch="solid"><stop
         style="stop-color:#ff0000;stop-opacity:1;"
         offset="0"
         id="stop9" /></linearGradient><linearGradient
       id="swatch7"
       inkscape:swatch="solid"><stop
         style="stop-color:#ff0000;stop-opacity:1;"
         offset="0"
         id="stop8" /></linearGradient><linearGradient
       id="swatch6"
       inkscape:swatch="solid"><stop
         style="stop-color:#620080;stop-opacity:1;"
         offset="0"
         id="stop7" /></linearGradient><linearGradient
       inkscape:collect="always"
       xlink:href="#swatch6"
       id="linearGradient11"
       x1="51.427559"
       y1="150.64703"
       x2="156.55692"
       y2="150.64703"
       gradientUnits="userSpaceOnUse" /></defs><g
     inkscape:label="Layer 1"
     inkscape:groupmode="layer"
     id="layer1"
     transform="translate(-36.055237,-82.977715)"><path
       style="fill:url(#linearGradient11);stroke-width:1.12452"
       d="m 100.72482,216.84079 c -2.84791,-0.6196 -4.305502,-1.53192 -10.937466,-6.84586 -9.940344,-7.96484 -9.558934,-7.86749 -14.749735,-3.7644 -8.271768,6.53845 -20.462788,2.73962 -23.109624,-7.20117 -0.785273,-2.94927 -0.592384,-102.923961 0.203172,-105.304906 1.522923,-4.557826 4.987878,-7.868337 9.768222,-9.332827 1.057337,-0.323922 6.175134,-0.401874 26.3844,-0.401874 H 113.3564 l 0.11348,15.39713 c 0.13632,18.494747 0.2769,19.225237 4.46024,23.177577 4.2654,4.02984 4.4489,4.06323 23.07282,4.19871 l 15.55398,0.11315 -0.0825,35.60795 c -0.0825,35.60793 -0.0825,35.60793 -0.7532,37.36908 -3.72013,9.7688 -14.64861,12.73613 -23.11504,6.27626 -5.15287,-3.93163 -4.66277,-4.0519 -14.04544,3.44696 -9.37868,7.49567 -11.95293,8.54411 -17.8359,7.26422 z m 35.28542,-38.4016 c 3.19569,-1.8773 3.19569,-6.12383 0,-8.00112 -1.63823,-0.96237 -61.138404,-0.96237 -62.776635,0 -3.738588,2.19622 -2.949651,7.45748 1.270941,8.47564 2.543438,0.61358 60.413474,0.1671 61.505694,-0.47452 z m 0,-19.04188 c 3.19569,-1.87728 3.19569,-6.12382 0,-8.0011 -1.63823,-0.96238 -61.138404,-0.96238 -62.776635,0 -3.738588,2.19621 -2.949651,7.45746 1.270941,8.47564 2.543438,0.61357 60.413474,0.16709 61.505694,-0.47454 z m -30.05045,-19.04186 c 3.19568,-1.87729 3.19568,-6.12382 0,-8.00112 -1.62501,-0.9546 -31.101174,-0.9546 -32.726185,0 -3.738943,2.19644 -2.951946,7.44663 1.270941,8.47868 2.432008,0.59436 30.352104,0.17047 31.455244,-0.47756 z m 19.11454,-23.63588 c -2.22359,-1.35574 -2.152,-0.77951 -2.15325,-17.332687 -9.1e-4,-12.175606 0.0696,-14.802071 0.39766,-14.802071 2.05287,0 4.07728,1.740569 17.09539,14.698526 19.63177,19.541032 19.5842,18.029992 0.56754,18.028572 -14.38064,-10e-4 -14.97381,-0.0232 -15.90734,-0.59234 z"
       id="path10" /></g></svg>
