<?xml version="1.0" encoding="UTF-8" standalone="no"?>
<!-- Created with Inkscape (http://www.inkscape.org/) -->

<svg
   width="135.46666mm"
   height="135.46666mm"
   viewBox="0 0 135.46666 135.46666"
   version="1.1"
   id="svg1"
   xml:space="preserve"
   inkscape:export-filename="store.svg"
   inkscape:export-xdpi="96"
   inkscape:export-ydpi="96"
   xmlns:inkscape="http://www.inkscape.org/namespaces/inkscape"
   xmlns:sodipodi="http://sodipodi.sourceforge.net/DTD/sodipodi-0.dtd"
   xmlns:xlink="http://www.w3.org/1999/xlink"
   xmlns="http://www.w3.org/2000/svg"
   xmlns:svg="http://www.w3.org/2000/svg"><sodipodi:namedview
     id="namedview1"
     pagecolor="#ffffff"
     bordercolor="#000000"
     borderopacity="0.25"
     inkscape:showpageshadow="2"
     inkscape:pageopacity="0.0"
     inkscape:pagecheckerboard="0"
     inkscape:deskcolor="#d1d1d1"
     inkscape:document-units="mm" /><defs
     id="defs1"><linearGradient
       id="swatch10"
       inkscape:swatch="solid"><stop
         style="stop-color:#800080;stop-opacity:1;"
         offset="0"
         id="stop10" /></linearGradient><linearGradient
       id="swatch8"
       inkscape:swatch="solid"><stop
         style="stop-color:#ff0000;stop-opacity:1;"
         offset="0"
         id="stop9" /></linearGradient><linearGradient
       id="swatch7"
       inkscape:swatch="solid"><stop
         style="stop-color:#ff0000;stop-opacity:1;"
         offset="0"
         id="stop8" /></linearGradient><linearGradient
       id="swatch6"
       inkscape:swatch="solid"><stop
         style="stop-color:#620080;stop-opacity:1;"
         offset="0"
         id="stop7" /></linearGradient><linearGradient
       inkscape:collect="always"
       xlink:href="#swatch6"
       id="linearGradient9"
       x1="36.844124"
       y1="150.73039"
       x2="170.74678"
       y2="150.73039"
       gradientUnits="userSpaceOnUse" /><linearGradient
       inkscape:collect="always"
       xlink:href="#swatch6"
       id="linearGradient10"
       x1="36.844124"
       y1="150.73039"
       x2="170.74678"
       y2="150.73039"
       gradientUnits="userSpaceOnUse" /></defs><g
     inkscape:label="Layer 1"
     inkscape:groupmode="layer"
     id="layer1"
     transform="translate(-36.055237,-82.977715)"><path
       style="fill:url(#linearGradient10);stroke:url(#linearGradient9);stroke-width:1.17395"
       d="m 55.955298,216.98222 c -14.278077,-1.65456 -18.481091,-8.14385 -18.481091,-28.53406 0,-23.89018 4.4649,-28.28059 28.731108,-28.25171 23.84155,0.0284 28.12912,4.41111 28.093931,28.71761 -0.02709,18.71222 -3.326199,24.745 -15.048455,27.51773 -2.238368,0.52946 -19.879478,0.94629 -23.295493,0.55043 z m 81.378932,-0.16749 c -20.36574,-2.90362 -30.95143,-26.6976 -19.56613,-43.97969 12.9981,-19.73021 43.46844,-15.82288 50.87865,6.52434 6.76181,20.39185 -10.03886,40.48843 -31.31252,37.45535 z M 61.129926,141.08636 C 38.041362,136.8964 29.339662,108.43275 46.21421,92.296367 61.749486,77.440672 87.13278,84.223651 93.418183,104.91031 c 5.976568,19.67021 -12.035725,39.85133 -32.288257,36.17605 z m 69.892344,-0.006 c -9.09107,-1.12894 -14.69182,-5.87452 -17.04533,-14.44275 -1.04925,-3.8199 -1.05251,-23.85354 -0.005,-27.643987 3.21097,-11.613381 8.8772,-14.598506 27.71027,-14.598506 23.8802,0 28.42051,4.540304 28.42051,28.420503 0,18.82801 -3.04313,24.59952 -14.59851,27.6872 -2.7473,0.73411 -19.95319,1.13999 -24.48244,0.57754 z"
       id="path7" /></g></svg>
