<?xml version="1.0" encoding="UTF-8" standalone="no"?>
<!-- Created with Inkscape (http://www.inkscape.org/) -->

<svg
   width="136.89264mm"
   height="136.89264mm"
   viewBox="0 0 136.89264 136.89264"
   version="1.1"
   id="svg1"
   xml:space="preserve"
   inkscape:export-filename="prices.svg"
   inkscape:export-xdpi="96"
   inkscape:export-ydpi="96"
   xmlns:inkscape="http://www.inkscape.org/namespaces/inkscape"
   xmlns:sodipodi="http://sodipodi.sourceforge.net/DTD/sodipodi-0.dtd"
   xmlns:xlink="http://www.w3.org/1999/xlink"
   xmlns="http://www.w3.org/2000/svg"
   xmlns:svg="http://www.w3.org/2000/svg"><sodipodi:namedview
     id="namedview1"
     pagecolor="#ffffff"
     bordercolor="#000000"
     borderopacity="0.25"
     inkscape:showpageshadow="2"
     inkscape:pageopacity="0.0"
     inkscape:pagecheckerboard="0"
     inkscape:deskcolor="#d1d1d1"
     inkscape:document-units="mm" /><defs
     id="defs1"><linearGradient
       id="swatch12"
       inkscape:swatch="solid"><stop
         style="stop-color:#000000;stop-opacity:1;"
         offset="0"
         id="stop12" /></linearGradient><linearGradient
       id="swatch11"
       inkscape:swatch="solid"><stop
         style="stop-color:#000000;stop-opacity:1;"
         offset="0"
         id="stop11" /></linearGradient><linearGradient
       id="swatch10"
       inkscape:swatch="solid"><stop
         style="stop-color:#800080;stop-opacity:1;"
         offset="0"
         id="stop10" /></linearGradient><linearGradient
       id="swatch8"
       inkscape:swatch="solid"><stop
         style="stop-color:#ff0000;stop-opacity:1;"
         offset="0"
         id="stop9" /></linearGradient><linearGradient
       id="swatch7"
       inkscape:swatch="solid"><stop
         style="stop-color:#ff0000;stop-opacity:1;"
         offset="0"
         id="stop8" /></linearGradient><linearGradient
       id="swatch6"
       inkscape:swatch="solid"><stop
         style="stop-color:#620080;stop-opacity:1;"
         offset="0"
         id="stop7" /></linearGradient><linearGradient
       inkscape:collect="always"
       xlink:href="#swatch6"
       id="linearGradient12"
       x1="35.531586"
       y1="150.64113"
       x2="172.38847"
       y2="150.64113"
       gradientUnits="userSpaceOnUse" /></defs><g
     inkscape:label="Layer 1"
     inkscape:groupmode="layer"
     id="layer1"
     transform="translate(-35.444427,-82.19117)"><path
       style="fill:url(#linearGradient12)"
       d="m 78.051427,204.11329 c -3.450577,-0.51221 -2.960167,-0.0834 -22.72167,-19.86705 -21.058041,-21.08163 -19.751645,-19.46881 -19.751645,-24.38455 0,-5.06054 -2.46832,-2.19076 28.552481,-33.19635 30.341243,-30.326361 28.421087,-28.643663 33.65063,-29.489195 2.400467,-0.388116 33.745647,0.188831 35.582777,0.654945 4.8115,1.220764 8.76042,5.80224 8.76042,10.16371 0,0.81211 0.0812,0.87194 2.33948,1.72436 22.19453,8.37753 34.1444,24.6727 24.62398,33.57793 -4.76716,4.45913 -16.43956,5.37034 -27.00868,2.10845 -0.3335,-0.10293 -0.66673,0.28734 -1.31874,1.54447 -0.9423,1.81682 -51.185057,52.57886 -54.609874,55.17428 -2.226235,1.68711 -5.204929,2.41862 -8.099159,1.989 z m 81.903343,-66.33731 c 4.75008,-0.92665 3.91835,-4.53323 -2.29086,-9.93379 -3.26374,-2.8387 -13.57228,-9.00809 -15.07159,-9.01996 -0.11029,-8.7e-4 -0.20053,2.71839 -0.20053,6.04281 0,5.64942 -0.0306,6.03219 -0.46789,5.85775 -0.25735,-0.10265 -1.43043,-0.54394 -2.60685,-0.98063 -7.89344,-2.93011 -12.85113,-6.18226 -13.05055,-8.5609 -0.92143,-10.99088 -16.90913,-10.69455 -16.89096,0.31307 0.0114,6.89755 7.83032,10.967 13.22967,6.88552 0.63282,-0.47835 1.28302,-0.96802 1.44489,-1.08815 0.17717,-0.13147 1.19892,0.37934 2.56695,1.28332 10.47078,6.91898 24.78469,10.86951 33.33772,9.20096 z"
       id="path11" /></g></svg>
