<?xml version="1.0" encoding="UTF-8" standalone="no"?>
<!-- Created with Inkscape (http://www.inkscape.org/) -->

<svg
   width="135.46666mm"
   height="135.46666mm"
   viewBox="0 0 135.46666 135.46666"
   version="1.1"
   id="svg1"
   xml:space="preserve"
   inkscape:export-filename="store.svg"
   inkscape:export-xdpi="96"
   inkscape:export-ydpi="96"
   xmlns:inkscape="http://www.inkscape.org/namespaces/inkscape"
   xmlns:sodipodi="http://sodipodi.sourceforge.net/DTD/sodipodi-0.dtd"
   xmlns:xlink="http://www.w3.org/1999/xlink"
   xmlns="http://www.w3.org/2000/svg"
   xmlns:svg="http://www.w3.org/2000/svg"><sodipodi:namedview
     id="namedview1"
     pagecolor="#ffffff"
     bordercolor="#000000"
     borderopacity="0.25"
     inkscape:showpageshadow="2"
     inkscape:pageopacity="0.0"
     inkscape:pagecheckerboard="0"
     inkscape:deskcolor="#d1d1d1"
     inkscape:document-units="mm" /><defs
     id="defs1"><linearGradient
       id="swatch6"
       inkscape:swatch="solid"><stop
         style="stop-color:#620080;stop-opacity:1;"
         offset="0"
         id="stop7" /></linearGradient><linearGradient
       inkscape:collect="always"
       xlink:href="#swatch6"
       id="linearGradient7"
       x1="67.174934"
       y1="95.28775"
       x2="200.66756"
       y2="95.28775"
       gradientUnits="userSpaceOnUse" /></defs><g
     inkscape:label="Layer 1"
     inkscape:groupmode="layer"
     id="layer1"
     transform="translate(-66.180283,-27.517557)"><path
       style="fill:url(#linearGradient7);fill-opacity:1;stroke-width:1.18019"
       d="m 93.649566,161.59098 c -9.27185,-1.67791 -16.556224,-8.45169 -19.131436,-17.79039 -0.670828,-2.43268 -0.689214,-2.94787 -0.70235,-19.67998 -0.01349,-17.18189 -0.01349,-17.18189 0.78426,-18.73277 1.945002,-3.78124 7.270251,-4.76919 10.486326,-1.94544 2.234083,1.96155 2.126008,1.02591 2.299213,19.9052 0.156129,17.01814 0.156129,17.01814 1.017102,18.77047 1.151581,2.3438 3.663839,4.68161 5.950277,5.53707 1.589343,0.59466 2.432957,0.67321 7.229432,0.67321 h 5.43012 l 0.12185,-12.10005 c 0.12974,-12.8837 0.16666,-13.23348 1.85462,-17.56459 2.56476,-6.5809 8.48229,-12.48278 15.05876,-15.01894 15.14778,-5.841599 31.50569,2.51153 35.83224,18.29766 0.63644,2.32218 0.69359,3.34077 0.81147,14.46599 l 0.1268,11.9679 5.82902,-0.10208 c 5.64917,-0.0989 5.88383,-0.12897 7.60579,-0.97458 2.1712,-1.06621 4.65494,-3.69219 5.44036,-5.7519 0.51781,-1.35793 0.58495,-3.03334 0.73571,-18.35633 0.1818,-18.47802 0.0971,-17.68512 2.08964,-19.57771 1.90752,-1.81191 5.03608,-2.32475 7.46146,-1.22311 1.54211,0.70045 3.50036,2.91128 3.74127,4.22382 0.0974,0.53021 0.13453,8.90322 0.0827,18.60669 -0.0943,17.64265 -0.0943,17.64265 -1.06586,20.35742 -2.37872,6.64632 -7.37518,11.96059 -13.73435,14.60792 -4.58634,1.90929 -3.96866,1.88406 -45.36683,1.85309 -30.11391,-0.0225 -38.130144,-0.11247 -39.987577,-0.4486 z M 87.146153,94.771113 C 80.600654,93.276013 74.459985,89.124011 70.98943,83.846774 68.178732,79.572899 66.661279,73.202273 67.332855,68.495618 c 0.519522,-3.641005 6.774616,-26.342232 7.839706,-28.452164 2.781287,-5.509698 7.82264,-9.549291 13.774314,-11.037238 2.548434,-0.637122 87.382295,-0.637122 89.930725,0 5.95864,1.489689 10.99268,5.526867 13.7823,11.053059 1.13341,2.245267 7.35084,24.958431 7.82504,28.586023 0.25307,1.935859 0.2444,3.27742 -0.0341,5.267867 -1.26327,9.030276 -7.43999,16.581628 -16.14613,19.739462 -3.66779,1.330355 -6.31785,1.699902 -10.9299,1.524161 -3.44247,-0.131175 -4.44808,-0.296511 -6.98763,-1.148872 -3.59309,-1.205962 -7.10445,-3.262603 -9.72773,-5.697648 l -1.95274,-1.812603 -1.73206,1.494396 c -3.50557,3.024547 -7.41058,5.19218 -11.47722,6.370871 -2.08827,0.605276 -3.1629,0.705182 -7.58524,0.705182 -4.42234,0 -5.49697,-0.0999 -7.58525,-0.705182 -4.06662,-1.178691 -7.97165,-3.346324 -11.47721,-6.370871 l -1.73206,-1.494396 -1.95273,1.812603 c -2.6174,2.429573 -6.12779,4.487997 -9.72773,5.704147 -2.735027,0.923958 -3.33191,1.009227 -7.65036,1.092911 -3.241301,0.06281 -5.286582,-0.0469 -6.640744,-0.356213 z"
       id="path1" /></g></svg>
